{
	"accessors": [
		{
			"bufferView": 2,
			"componentType": 5126,
			"count": 39261,
			"max": [1.5983177423477173, 1.028259038925171, 1.2063859701156616],
			"min": [
				-1.0069657564163208, -1.905360460281372, -1.7129154205322266
			],
			"type": "VEC3"
		},
		{
			"bufferView": 2,
			"byteOffset": 471132,
			"componentType": 5126,
			"count": 39261,
			"max": [0.999999463558197, 0.9999990463256836, 0.9999969601631165],
			"min": [
				-0.9999995827674866, -0.9998114705085754, -0.9999990463256836
			],
			"type": "VEC3"
		},
		{
			"bufferView": 1,
			"componentType": 5126,
			"count": 39261,
			"max": [0.9999616742134094, 0.9974669218063354],
			"min": [5.994386083330028e-5, 0.00011856327182613313],
			"type": "VEC2"
		},
		{
			"bufferView": 1,
			"byteOffset": 314088,
			"componentType": 5126,
			"count": 39261,
			"max": [0.9999616742134094, 0.9974669218063354],
			"min": [5.994386083330028e-5, 0.00011856327182613313],
			"type": "VEC2"
		},
		{
			"bufferView": 1,
			"byteOffset": 628176,
			"componentType": 5126,
			"count": 39261,
			"max": [0.9999616742134094, 0.9974669218063354],
			"min": [5.994386083330028e-5, 0.00011856327182613313],
			"type": "VEC2"
		},
		{
			"bufferView": 0,
			"componentType": 5125,
			"count": 182568,
			"type": "SCALAR"
		}
	],
	"asset": {
		"extras": {
			"author": "ncassab (https://sketchfab.com/ncassab)",
			"license": "CC-BY-NC-SA-4.0 (http://creativecommons.org/licenses/by-nc-sa/4.0/)",
			"source": "https://sketchfab.com/3d-models/angel-de-la-seguridad-social-fc7dfb86805949e4be2b16d6eb8d72c5",
			"title": "Angel de la Seguridad Social"
		},
		"generator": "Sketchfab-12.74.0",
		"version": "2.0"
	},
	"bufferViews": [
		{
			"buffer": 0,
			"byteLength": 730272,
			"name": "floatBufferViews",
			"target": 34963
		},
		{
			"buffer": 0,
			"byteLength": 942264,
			"byteOffset": 730272,
			"byteStride": 8,
			"name": "floatBufferViews",
			"target": 34962
		},
		{
			"buffer": 0,
			"byteLength": 942264,
			"byteOffset": 1672536,
			"byteStride": 12,
			"name": "floatBufferViews",
			"target": 34962
		}
	],
	"buffers": [
		{
			"byteLength": 2614800,
			"uri": "angel.bin"
		}
	],
	"extensionsUsed": ["KHR_materials_unlit"],
	"images": [
		{
			"uri": "textures/material_0_baseColor.jpeg"
		}
	],
	"materials": [
		{
			"extensions": {
				"KHR_materials_unlit": {}
			},
			"name": "material_0",
			"pbrMetallicRoughness": {
				"baseColorTexture": {
					"index": 0
				},
				"metallicFactor": 0.0
			}
		}
	],
	"meshes": [
		{
			"name": "Object_0",
			"primitives": [
				{
					"attributes": {
						"NORMAL": 1,
						"POSITION": 0,
						"TEXCOORD_0": 2,
						"TEXCOORD_1": 3,
						"TEXCOORD_2": 4
					},
					"indices": 5,
					"material": 0,
					"mode": 4
				}
			]
		}
	],
	"nodes": [
		{
			"children": [1],
			"matrix": [
				1.0, 0.0, 0.0, 0.0, 0.0, 2.220446049250313e-16, -1.0, 0.0, 0.0,
				1.0, 2.220446049250313e-16, 0.0, 0.0, 0.0, 0.0, 1.0
			],
			"name": "Sketchfab_model"
		},
		{
			"children": [2],
			"name": "root"
		},
		{
			"children": [3],
			"matrix": [
				1.0, 0.0, 0.0, 0.0, 0.0, 2.220446049250313e-16, 1.0, 0.0, 0.0,
				-1.0, 2.220446049250313e-16, 0.0, 0.0, 0.0, 0.0, 1.0
			],
			"name": "GLTF_SceneRootNode"
		},
		{
			"children": [4],
			"name": "_0"
		},
		{
			"mesh": 0,
			"name": "Object_4"
		}
	],
	"samplers": [
		{
			"magFilter": 9729,
			"minFilter": 9987,
			"wrapS": 10497,
			"wrapT": 10497
		}
	],
	"scene": 0,
	"scenes": [
		{
			"name": "Sketchfab_Scene",
			"nodes": [0]
		}
	],
	"textures": [
		{
			"sampler": 0,
			"source": 0
		}
	]
}
